<?xml version="1.0" encoding="utf-8"?>
<!-- Generator: Adobe Illustrator 22.0.0, SVG Export Plug-In . SVG Version: 6.00 Build 0)  -->
<svg version="1.1" id="Layer_1" xmlns="http://www.w3.org/2000/svg" xmlns:xlink="http://www.w3.org/1999/xlink" x="0px" y="0px"
	 viewBox="0 0 197.1 97.2" style="enable-background:new 0 0 197.1 97.2;" xml:space="preserve">
<style type="text/css">
	.st0{fill:#E1E1E1;stroke:#FFFFFF;stroke-width:3;stroke-miterlimit:10;}
	.st1{fill:#EF1818;stroke:#FFFFFF;stroke-width:3;stroke-miterlimit:10;}
	.st2{fill:#FDAB08;stroke:#FFFFFF;stroke-width:3;stroke-miterlimit:10;}
	.st3{fill:#FFF126;stroke:#FFFFFF;stroke-width:3;stroke-miterlimit:10;}
	.st4{fill:none;stroke:#FFFFFF;stroke-width:4.5;stroke-miterlimit:10;}
	.st5{fill:#FFFFFF;stroke:#FFFFFF;stroke-width:65;}
</style>
<g id="Group_164" transform="translate(1.043 1.52)">
	<g id="Group_597">
		<path id="Path_372" class="st0" d="M101.5,97.5c13.7-10,26.5-20.2,40-30c11.2-8.2,22.8-15.8,34-24c1.4-1,2.1-1.3,3,0
			c10.8,15.7,15.6,32.9,16,52c0,1.5,0.2,2-1,2c-21.5-0.1-43.5,0-65,0c-8.9,0-17.1,0-26,0C102.2,97.5,101.8,97.5,101.5,97.5z"/>
		<path id="Path_373" class="st1" d="M94.5,97.5c-9.4,0-19.1,0-28,0c-21.6,0-43.4,0-65,0c-1.3,0-1-0.3-1-2c0.4-13.8,3-26.6,9-39
			c2.4-4.5,5-8.9,8-13c0.8-1.2,0.9-1.8,2-1c16.3,11.9,32.7,24.1,49,36C76.9,84.6,85.7,91,94.5,97.5z"/>
		<path id="Path_375_1_" class="st2" d="M96.6,94.8C81.8,84.6,66.2,74.1,51.5,63.8C41,56.6,30.5,49.8,20,42.6
			c-0.7-0.3-1-1.1-0.7-1.8c0.1-0.1,0.1-0.3,0.2-0.4c9-12.3,20.8-22.3,34.5-29c3.6-1.9,7.4-3.6,11.3-4.9c0.6,0.4,1,0.9,1.2,1.6
			c9.9,28.2,19.6,56.3,29.5,84.5C96.4,93.2,97.6,94,96.6,94.8z"/>
		<path id="Path_375" class="st3" d="M97.5,94.5c-5.5-17.1-11.5-34.9-17-52c-3.9-12.1-8-23.9-12-36c-0.4-0.7-0.1-1.5,0.6-1.9
			c0.1-0.1,0.3-0.1,0.4-0.1c14.6-4.3,30.1-5,45-2c4.1,0.7,8.1,1.7,12,3c0.2,0.6,0.2,1.4,0,2c-9.2,28.4-18.7,56.6-28,85
			C98.3,93.1,98.8,94.5,97.5,94.5z"/>
		<path id="Path_376" class="st0" d="M99.5,95.5c1.4-4.3,2.7-8.1,4-12c8.2-25.2,16.8-50.8,25-76c0.5-1.5,0.5-1.5,2-1
			c17.5,6,32.9,17.2,44,32c0.6,0.8,1.1,2.2,0,3c-24.7,17.9-49.4,35.1-74,53C100.3,94.6,100.1,95.1,99.5,95.5z"/>
		<g>
			<path class="st4" d="M97.5,15.5c-45.5,0-82.4,36.6-83,82h165.9C179.9,52.1,143,15.5,97.5,15.5z"/>
		</g>
		<path class="st5" d="M125.5,97.1c-0.1-15.4-12.6-27.7-28-27.6c-0.1,0-0.2,0-0.4,0c-15.4,0.1-27.7,12.6-27.6,28h56
			C125.5,97.3,125.5,97.2,125.5,97.1z"/>
	</g>
</g>
</svg>
