<svg xmlns="http://www.w3.org/2000/svg" width="42" height="42" viewBox="0 0 42 42">
  <g id="chrome" transform="translate(0 -0.002)">
    <path id="Path_289" data-name="Path 289" d="M60.661.006A21.522,21.522,0,0,1,79.6,11.871h-20s-3.776-.124-7,4.45a9.32,9.32,0,0,0-.8,7.786C50.2,21.388,43.265,9.337,43.265,9.337S48.156.5,60.661.006Z" transform="translate(-39.716 0)" fill="#e16b5a"/>
    <path id="Path_290" data-name="Path 290" d="M248.294.006c-.214.009-.42.025-.629.038a21.6,21.6,0,0,1,17.649,11.826h1.923A21.52,21.52,0,0,0,248.294.006Z" transform="translate(-227.348 0)" fill="#cc6152"/>
    <path id="Path_291" data-name="Path 291" d="M257.208,163.811a21.514,21.514,0,0,1-19.767,10.44c1.734-3,10-17.284,10-17.284s2-3.2-.361-8.272c-1.2-1.761-4.827-3.606-8.762-4.59,3.164-.031,19.494,0,19.494,0S263.033,152.755,257.208,163.811Z" transform="translate(-217.963 -132.269)" fill="#ffd464"/>
    <path id="Path_292" data-name="Path 292" d="M257.809,144.113s-8.329-.017-14.244-.015c5.674,0,12.47.015,12.47.015s5.22,8.647-.6,19.7a21.45,21.45,0,0,1-17.993,10.44h0a21.515,21.515,0,0,0,19.767-10.44C263.029,152.761,257.809,144.113,257.809,144.113Z" transform="translate(-217.959 -132.276)" fill="#f2c95f"/>
    <path id="Path_293" data-name="Path 293" d="M2.735,135.861a21.44,21.44,0,0,1,.827-22.309l9.995,17.288s1.78,3.327,7.357,3.824a9.362,9.362,0,0,0,7.158-3.2c-1.555,2.751-8.545,14.768-8.545,14.768S9.414,146.425,2.735,135.861Z" transform="translate(0 -104.235)" fill="#74b340"/>
    <circle id="Ellipse_28" data-name="Ellipse 28" cx="9.516" cy="9.516" r="9.516" transform="translate(11.38 11.657)" fill="#fff"/>
    <circle id="Ellipse_29" data-name="Ellipse 29" cx="7.547" cy="7.547" r="7.547" transform="translate(13.345 13.626)" fill="#2995cc"/>
    <path id="Path_294" data-name="Path 294" d="M249.708,166.1c-.15,0-.3.006-.447.014a7.546,7.546,0,0,1,0,15.066c.148.008.3.014.447.014a7.547,7.547,0,0,0,0-15.094Z" transform="translate(-228.814 -152.473)" fill="#268cbf"/>
  </g>
</svg>
