<svg xmlns="http://www.w3.org/2000/svg" width="54" height="54" viewBox="0 0 54 54">
  <g id="fake" transform="translate(0 -0.002)">
    <path id="Path_340" data-name="Path 340" d="M5.008,169.544v-5L.095,150.952a1.582,1.582,0,0,1,.944-2.023l3.97-1.454V135.5H1.055A1.055,1.055,0,0,0,0,136.558v32.986a2.5,2.5,0,1,0,5.008,0Z" transform="translate(0 -121.21)" fill="#c3c6cb"/>
    <path id="Path_341" data-name="Path 341" d="M77.584,333.371a1.582,1.582,0,0,1,0,3.164H68.1L59.454,339.7h1.423a1.582,1.582,0,1,1,0,3.164H50.805l-4.523,1.655h0l-2.483.909a1.554,1.554,0,0,1-.971.035,4.083,4.083,0,0,1-4.081,3.886H79.893a5.6,5.6,0,0,0,5.6-5.593V330.172l-8.744,3.2Zm0,9.492H66.97a1.582,1.582,0,1,1,0-3.164H77.584a1.582,1.582,0,1,1,0,3.164Z" transform="translate(-34.659 -295.347)" fill="#c3c6cb"/>
    <path id="Path_342" data-name="Path 342" d="M84.916,22.2a1.582,1.582,0,0,1,0-3.164h9.134l8.64-3.164H84.916a1.582,1.582,0,0,1-1.582-1.582V7.755a1.582,1.582,0,0,1,1.582-1.582h27.321a1.582,1.582,0,0,1,1.582,1.582V11.8l.355-.13a1.574,1.574,0,0,1,.2-.057l1.216-.445a4.212,4.212,0,0,1,4.559,1.114V1.057A1.055,1.055,0,0,0,119.093,0H78.539a1.055,1.055,0,0,0-1.055,1.055V25.106l7.926-2.9h-.494Z" transform="translate(-69.312)" fill="#c3c6cb"/>
    <path id="Path_343" data-name="Path 343" d="M216.366,284.647l2.04-.743-2.383-3.374Z" transform="translate(-193.239 -250.941)" fill="#c3c6cb" opacity="0.68"/>
    <path id="Path_344" data-name="Path 344" d="M87.015,148.554,81.8,134.123a1.055,1.055,0,0,0-1.355-.632L37.67,149.139a1.055,1.055,0,0,0-.629,1.349l5.219,14.432a1.055,1.055,0,0,0,1.355.632L86.386,149.9A1.055,1.055,0,0,0,87.015,148.554Zm-38.571,4.922,2.11-.768c.419-.153.8.166.967.613a.78.78,0,0,1-.357,1.064l-2.11.768,1.312,3.606c.163.447-.3.869-.846,1.068s-1.171.173-1.334-.274l-3.23-8.874c-.163-.447.231-.844.706-1.017l4.849-1.765c.461-.168.835.25,1,.7.188.517.113,1.051-.306,1.2l-3.619,1.317Zm12.843,2.067a.691.691,0,0,1-.86-.146l-1.111-1.574L56.368,154.9l.161,1.92c.023.324-.216.538-.565.665-.6.219-1.535.131-1.723-.386a.768.768,0,0,1-.028-.164l-.5-9.471c-.024-.545.518-1.012,1.161-1.246a1.5,1.5,0,0,1,1.69.208L62.275,154a.766.766,0,0,1,.084.144C62.547,154.658,61.888,155.325,61.287,155.544Zm8.848-3.126a.9.9,0,0,1-.9-.131l-3.712-2.764-.312.968.921,2.529c.163.447-.3.869-.846,1.068s-1.171.173-1.334-.274l-3.235-8.888c-.168-.461.306-.855.851-1.054s1.161-.2,1.329.26l1.221,3.354,1.265-4.655a.7.7,0,0,1,.461-.516,1.478,1.478,0,0,1,1.693.65.753.753,0,0,1,.013.47L66.3,147.151l4.505,3.377a.736.736,0,0,1,.244.323A1.419,1.419,0,0,1,70.135,152.419Zm8.591-3.222-4.975,1.811c-.475.173-1.032.122-1.194-.325l-3.23-8.874c-.163-.447.231-.844.706-1.017l4.975-1.811c.461-.168.835.25,1,.7.188.517.113,1.051-.306,1.2l-3.745,1.363.86,2.362,2.1-.763c.419-.152.8.166.967.613a.78.78,0,0,1-.357,1.064l-2.1.763.865,2.376,3.745-1.363c.419-.153.82.208,1.008.725C79.206,148.468,79.188,149.029,78.727,149.2Z" transform="translate(-33.078 -119.352)" fill="#c3c6cb"/>
  </g>
</svg>
