<svg xmlns="http://www.w3.org/2000/svg" width="924.638" height="443.257" viewBox="0 0 924.638 443.257">
  <g id="Group_104" data-name="Group 104" transform="translate(924.638) rotate(90)" opacity="0.08">
    <path id="Path_259" data-name="Path 259" d="M745.246,2213.754,406.412,2409.382a465.118,465.118,0,0,0,143.208,143.2Z" transform="translate(-334.998 -1699.366)" fill="#fff" opacity="0.9"/>
    <path id="Path_260" data-name="Path 260" d="M549.619,2150.947a465.267,465.267,0,0,0-143.208,143.208l338.834,195.634Z" transform="translate(-334.998 -2079.542)" fill="#fff" opacity="0.6"/>
    <path id="Path_261" data-name="Path 261" d="M627.028,2216.455,497.151,2441.414l-65.757,113.9a460.228,460.228,0,0,0,195.634,52.333Z" transform="translate(-183.772 -1683.007)" fill="#fff"/>
    <path id="Path_263" data-name="Path 263" d="M787.477,2209.07H396.287a460.19,460.19,0,0,0,52.335,195.642Z" transform="translate(-396.287 -1727.698)" fill="#fff" opacity="0.8"/>
    <path id="Path_264" data-name="Path 264" d="M627.028,2532V2140.824a460.1,460.1,0,0,0-195.634,52.325Z" transform="translate(-183.772 -2140.824)" fill="#fff" opacity="0.5"/>
    <path id="Path_265" data-name="Path 265" d="M787.477,2371.572,448.621,2175.93a460.232,460.232,0,0,0-52.335,195.642Z" transform="translate(-396.287 -1928.313)" fill="#fff" opacity="0.7"/>
  </g>
</svg>
