<svg xmlns="http://www.w3.org/2000/svg" width="256.34" height="534.727" viewBox="0 0 256.34 534.727">
  <g id="Group_108" data-name="Group 108" transform="translate(-396.287 -2140.824)" opacity="0.74">
    <path id="Path_270" data-name="Path 270" d="M602.364,2213.754,406.412,2326.888a268.972,268.972,0,0,0,82.819,82.818Z" transform="translate(31.174 224.546)" fill="#fff" opacity="0.9"/>
    <path id="Path_271" data-name="Path 271" d="M489.231,2150.948a269.056,269.056,0,0,0-82.819,82.819L602.364,2346.9Z" transform="translate(31.174 31.171)" fill="#fff" opacity="0.6"/>
    <path id="Path_272" data-name="Path 272" d="M544.532,2216.456,431.395,2412.42a266.129,266.129,0,0,0,113.137,30.265Z" transform="translate(108.095 232.866)" fill="#fff"/>
    <path id="Path_274" data-name="Path 274" d="M622.517,2209.073H396.287a266.131,266.131,0,0,0,30.266,113.142Z" transform="translate(0 210.134)" fill="#fff" opacity="0.8"/>
    <path id="Path_275" data-name="Path 275" d="M544.532,2367.049V2140.824a266.091,266.091,0,0,0-113.137,30.261Z" transform="translate(108.095 0)" fill="#fff" opacity="0.5"/>
    <path id="Path_276" data-name="Path 276" d="M622.517,2289.072,426.553,2175.93a266.149,266.149,0,0,0-30.266,113.142Z" transform="translate(0 108.092)" fill="#fff" opacity="0.7"/>
  </g>
</svg>
