<svg xmlns="http://www.w3.org/2000/svg" width="54.522" height="54.306" viewBox="0 0 54.522 54.306">
  <g id="Group_289" data-name="Group 289" transform="translate(1.44 1.486)">
    <path id="Path_417" data-name="Path 417" d="M194.338,2755.169l10.735-7.8c2.969-2.157,5.945-4.306,8.9-6.48.372-.274.5-.2.74.15a24.746,24.746,0,0,1,4.415,13.779c.007.393-.132.425-.439.424q-8.53-.021-17.06-.028c-2.355,0-4.71.012-7.066.017A1.268,1.268,0,0,1,194.338,2755.169Z" transform="translate(-167.549 -2729.654)" fill="#41a136" stroke="#fff" stroke-miterlimit="10" stroke-width="3"/>
    <path id="Path_418" data-name="Path 418" d="M119.1,2755.149c-2.495,0-4.847,0-7.2,0q-8.58,0-17.161,0c-.351,0-.513-.026-.5-.468a24.956,24.956,0,0,1,2.487-10.379,27.505,27.505,0,0,1,2.019-3.437c.209-.308.347-.311.644-.093q6.453,4.724,12.924,9.423Z" transform="translate(-94.172 -2729.587)" fill="#41a136" stroke="#fff" stroke-miterlimit="10" stroke-width="3"/>
    <path id="Path_419" data-name="Path 419" d="M133.771,2728.435c-1.391-1.011-2.663-1.934-3.933-2.859l-10.394-7.567c-1.8-1.312-3.6-2.63-5.419-3.927-.325-.232-.276-.384-.066-.659a24.558,24.558,0,0,1,10.02-7.84c.571-.242,1.164-.432,1.734-.677.311-.134.423-.1.537.253,1.36,4.255,2.743,8.5,4.12,12.752q1.615,4.984,3.228,9.969C133.642,2728.014,133.682,2728.149,133.771,2728.435Z" transform="translate(-108.509 -2703.349)" fill="#41a136" stroke="#fff" stroke-miterlimit="10" stroke-width="3"/>
    <path id="Path_420" data-name="Path 420" d="M169.789,2724.04q-2.186-6.776-4.372-13.552-1.551-4.8-3.112-9.6c-.089-.271-.043-.36.222-.44a24.406,24.406,0,0,1,11.81-.7,20.656,20.656,0,0,1,3.19.819c.064.189-.048.346-.1.51q-3.66,11.255-7.336,22.5C170.037,2723.739,170.119,2724.04,169.789,2724.04Z" transform="translate(-144.039 -2699.308)" fill="#41a136" stroke="#fff" stroke-miterlimit="10" stroke-width="3"/>
    <path id="Path_421" data-name="Path 421" d="M192.883,2728.493l1.033-3.172q3.251-9.979,6.492-19.961c.129-.4.259-.462.652-.324a24.723,24.723,0,0,1,11.671,8.53c.17.223.256.37-.044.587q-9.775,7.08-19.537,14.179C193.1,2728.368,193.045,2728.4,192.883,2728.493Z" transform="translate(-166.482 -2703.449)" fill="#41a136" stroke="#fff" stroke-miterlimit="10" stroke-width="3"/>
    <ellipse id="Ellipse_50" data-name="Ellipse 50" cx="7.469" cy="7.469" rx="7.469" ry="7.469" transform="translate(18.397 18.118)" fill="#fff"/>
    <ellipse id="Ellipse_51" data-name="Ellipse 51" cx="18.256" cy="18.256" rx="18.256" ry="18.256" transform="translate(7.61 7.331)" fill="none" stroke="#fff" stroke-miterlimit="10" stroke-width="6"/>
    <path id="Path_422" data-name="Path 422" d="M119.024,2795.767l-10.735,7.8c-2.97,2.157-5.945,4.306-8.9,6.481-.372.273-.5.2-.74-.15a24.748,24.748,0,0,1-4.415-13.779c-.007-.393.131-.426.439-.425q8.53.02,17.06.028c2.355,0,4.71-.012,7.065-.017A1.24,1.24,0,0,1,119.024,2795.767Z" transform="translate(-94.172 -2769.95)" fill="#41a136" stroke="#fff" stroke-miterlimit="10" stroke-width="3"/>
    <path id="Path_423" data-name="Path 423" d="M194.074,2795.765c2.495,0,4.847,0,7.2,0q8.58,0,17.161,0c.351,0,.513.026.5.469a24.956,24.956,0,0,1-2.486,10.379,27.558,27.558,0,0,1-2.019,3.437c-.209.308-.347.311-.644.093q-6.452-4.724-12.924-9.424Z" transform="translate(-167.355 -2769.996)" fill="#41a136" stroke="#fff" stroke-miterlimit="10" stroke-width="3"/>
    <path id="Path_424" data-name="Path 424" d="M192.806,2797.572c1.391,1.011,2.663,1.934,3.933,2.859q5.2,3.783,10.394,7.567c1.8,1.313,3.6,2.63,5.419,3.927.325.232.276.385.066.659a24.558,24.558,0,0,1-10.02,7.84c-.571.242-1.164.432-1.734.677-.311.134-.423.1-.537-.253-1.36-4.255-2.743-8.5-4.12-12.752q-1.614-4.984-3.228-9.969C192.935,2797.993,192.895,2797.858,192.806,2797.572Z" transform="translate(-166.426 -2771.326)" fill="#41a136" stroke="#fff" stroke-miterlimit="10" stroke-width="3"/>
    <path id="Path_425" data-name="Path 425" d="M169.682,2798.9q2.186,6.776,4.372,13.552,1.55,4.8,3.112,9.6c.089.271.043.36-.222.44a24.4,24.4,0,0,1-11.81.7,20.656,20.656,0,0,1-3.19-.819c-.064-.189.048-.347.1-.51q3.66-11.255,7.336-22.5C169.434,2799.2,169.352,2798.9,169.682,2798.9Z" transform="translate(-143.79 -2772.299)" fill="#41a136" stroke="#fff" stroke-miterlimit="10" stroke-width="3"/>
    <path id="Path_426" data-name="Path 426" d="M133.629,2797.729,132.6,2800.9q-3.251,9.98-6.492,19.962c-.129.4-.259.463-.652.324a24.723,24.723,0,0,1-11.672-8.53c-.17-.223-.256-.37.044-.587q9.775-7.081,19.537-14.179C133.411,2797.854,133.467,2797.826,133.629,2797.729Z" transform="translate(-108.387 -2771.441)" fill="#41a136" stroke="#fff" stroke-miterlimit="10" stroke-width="3"/>
    <ellipse id="Ellipse_52" data-name="Ellipse 52" cx="7.469" cy="7.469" rx="7.469" ry="7.469" transform="translate(18.307 18.275)" fill="#fff"/>
    <ellipse id="Ellipse_53" data-name="Ellipse 53" cx="18.256" cy="18.256" rx="18.256" ry="18.256" transform="translate(7.52 7.488)" fill="none" stroke="#fff" stroke-miterlimit="10" stroke-width="6"/>
    <g id="Group_179" data-name="Group 179" transform="translate(0 0)">
      <ellipse id="Ellipse_54" data-name="Ellipse 54" cx="21.199" cy="21.199" rx="21.199" ry="21.199" transform="translate(0 41.264) rotate(-76.718)" fill="#fff"/>
    </g>
    <path id="Path_427" data-name="Path 427" d="M151.218,2769.229l-6.817-4.436-.01.009,5.531,8.5,1.3,1.991,1.684-1.991,16.336-19.315Z" transform="translate(-130.938 -2739.38)" fill="#41a136"/>
  </g>
</svg>
