<svg xmlns="http://www.w3.org/2000/svg" width="125" height="125" viewBox="0 0 125 125">
  <g id="Group_595" data-name="Group 595" transform="translate(-284 -2215)">
    <g id="Group_2" data-name="Group 2" transform="translate(284 2215)">
      <path id="Path_4" data-name="Path 4" d="M62.5,0A62.5,62.5,0,1,1,0,62.5,62.5,62.5,0,0,1,62.5,0Z" fill="#fff"/>
    </g>
    <g id="news-logo" transform="translate(310 2242.481)">
      <path id="Path_339" data-name="Path 339" d="M22.156,47.1A38.653,38.653,0,0,0,30.4,58.315a23.511,23.511,0,0,1-16.84-11.3Zm8.111-35.327A23.519,23.519,0,0,0,13.829,22.632l8.33.091A37.8,37.8,0,0,1,30.267,11.776Zm2.791,11.063.124-11.32h-.025a37.717,37.717,0,0,0-9.031,11.22ZM13.83,26.355l-1.645-.015-1.625-.021-.128,11.758L3.849,26.248l-1.838-.019L.18,26.209,0,42.938l1.636.024,1.629.015.13-12.06,6.773,12.136,1.745.02,1.741.021ZM29.476,29.5,29.49,28l.019-1.482-12.32-.132-.18,16.737,12.7.133.017-1.487.014-1.483-9.2-.1.046-4.367,8.184.088.014-1.435.014-1.444-8.182-.086.039-3.548Zm16.7,9.359h0L43.884,26.679l-1.866-.02-1.857-.023L37.64,38.862,34.975,26.583l-1.817-.021-1.818-.021,4.476,16.788,1.66.019,1.665.021,2.769-13.155L44.457,43.42l1.669.024,1.658.017,4.838-16.688-1.768-.019-1.767-.019ZM34.979,11.54h-.024l-.122,11.319,8.939.094A37.816,37.816,0,0,0,34.979,11.54ZM54.07,23.061a23.538,23.538,0,0,0-16.211-11.2,37.666,37.666,0,0,1,7.88,11.115ZM36.728,58.383A23.53,23.53,0,0,0,53.809,47.44l-8.593-.09A38.711,38.711,0,0,1,36.728,58.383ZM43.236,47.33l-8.665-.094-.117,10.81A38.249,38.249,0,0,0,43.236,47.33ZM66.313,35.581a11.924,11.924,0,0,0-4.863-1.933,15.973,15.973,0,0,1-3.278-1.014,1.263,1.263,0,0,1-.777-1.17,1.953,1.953,0,0,1,.77-1.629,3.369,3.369,0,0,1,2.084-.549,4.144,4.144,0,0,1,2.487.723,2.448,2.448,0,0,1,1.022,1.9l3.4.042a5.51,5.51,0,0,0-1.913-4.015,6.854,6.854,0,0,0-4.561-1.527,7.42,7.42,0,0,0-4.784,1.368,4.738,4.738,0,0,0-1.8,3.853A3.8,3.8,0,0,0,55.4,34.847a15.073,15.073,0,0,0,5.305,1.97,9.988,9.988,0,0,1,2.816.956,1.555,1.555,0,0,1,.658,1.4,1.657,1.657,0,0,1-.957,1.483,5.282,5.282,0,0,1-2.619.511,4,4,0,0,1-2.528-.744,2.576,2.576,0,0,1-.946-2.059l-3.367-.034a5.438,5.438,0,0,0,1.868,4.2A7.533,7.533,0,0,0,60.57,44.05,8.194,8.194,0,0,0,65.6,42.723,4.416,4.416,0,0,0,67.5,39,4.233,4.233,0,0,0,66.313,35.581ZM32.681,58.014l.117-10.8-8.665-.093A38.4,38.4,0,0,0,32.681,58.014Z" transform="translate(3 2)" fill="#c3c6cb"/>
    </g>
  </g>
</svg>
