<svg xmlns="http://www.w3.org/2000/svg" width="54.527" height="54.313" viewBox="0 0 54.527 54.313">
  <g id="Group_345" data-name="Group 345" transform="translate(1.44 1.488)">
    <ellipse id="Ellipse_55" data-name="Ellipse 55" cx="7.47" cy="7.47" rx="7.47" ry="7.47" transform="translate(18.399 18.12)" fill="#fff"/>
    <ellipse id="Ellipse_56" data-name="Ellipse 56" cx="18.258" cy="18.258" rx="18.258" ry="18.258" transform="translate(7.611 7.332)" fill="none" stroke="#fff" stroke-miterlimit="10" stroke-width="6"/>
    <g id="Group_181" data-name="Group 181" transform="translate(0.06 0.012)">
      <path id="Path_428" data-name="Path 428" d="M441.262,2755.17l10.737-7.8c2.97-2.158,5.946-4.307,8.9-6.481.372-.274.5-.2.74.15a24.749,24.749,0,0,1,4.416,13.781c.007.393-.132.426-.439.425q-8.531-.021-17.062-.029c-2.355,0-4.711.012-7.066.017A1.233,1.233,0,0,1,441.262,2755.17Z" transform="translate(-414.53 -2729.665)" fill="#de4537" stroke="#fff" stroke-miterlimit="10" stroke-width="3"/>
      <path id="Path_429" data-name="Path 429" d="M366.022,2755.151c-2.495,0-4.848,0-7.2,0q-8.581,0-17.163,0c-.351,0-.513-.026-.5-.469a24.959,24.959,0,0,1,2.487-10.38,27.493,27.493,0,0,1,2.019-3.437c.209-.308.347-.311.644-.094q6.453,4.725,12.925,9.425Z" transform="translate(-341.156 -2729.597)" fill="#de4537" stroke="#fff" stroke-miterlimit="10" stroke-width="3"/>
      <path id="Path_430" data-name="Path 430" d="M380.7,2728.438c-1.391-1.011-2.663-1.935-3.933-2.859q-5.2-3.783-10.395-7.568c-1.8-1.313-3.6-2.631-5.42-3.927-.325-.232-.276-.385-.066-.659a24.563,24.563,0,0,1,10.021-7.841c.571-.242,1.165-.432,1.734-.677.311-.133.423-.1.538.253,1.36,4.255,2.744,8.5,4.12,12.753q1.615,4.985,3.228,9.97C380.568,2728.017,380.608,2728.151,380.7,2728.438Z" transform="translate(-355.492 -2703.361)" fill="#de4537" stroke="#fff" stroke-miterlimit="10" stroke-width="3"/>
      <path id="Path_431" data-name="Path 431" d="M416.714,2724.042q-2.186-6.776-4.373-13.553-1.551-4.8-3.112-9.6c-.089-.271-.043-.36.222-.44a24.409,24.409,0,0,1,11.812-.7,20.635,20.635,0,0,1,3.19.819c.064.189-.048.346-.1.51q-3.661,11.256-7.337,22.508C416.962,2723.742,417.044,2724.042,416.714,2724.042Z" transform="translate(-391.021 -2699.32)" fill="#de4537" stroke="#fff" stroke-miterlimit="10" stroke-width="3"/>
      <path id="Path_432" data-name="Path 432" d="M439.807,2728.5l1.033-3.172q3.251-9.98,6.493-19.964c.129-.4.259-.462.652-.324a24.729,24.729,0,0,1,11.673,8.531c.17.223.256.37-.044.587q-9.776,7.081-19.539,14.181C440.025,2728.371,439.969,2728.4,439.807,2728.5Z" transform="translate(-413.464 -2703.46)" fill="#de4537" stroke="#fff" stroke-miterlimit="10" stroke-width="3"/>
      <path id="Path_433" data-name="Path 433" d="M365.951,2795.767l-10.736,7.8c-2.97,2.157-5.946,4.307-8.9,6.481-.372.274-.5.2-.74-.15a24.75,24.75,0,0,1-4.416-13.781c-.007-.393.131-.426.439-.425q8.531.019,17.062.028c2.355,0,4.711-.012,7.066-.017A1.242,1.242,0,0,1,365.951,2795.767Z" transform="translate(-341.156 -2769.959)" fill="#de4537" stroke="#fff" stroke-miterlimit="10" stroke-width="3"/>
      <path id="Path_434" data-name="Path 434" d="M441,2795.765c2.495,0,4.848,0,7.2,0q8.581,0,17.163,0c.351,0,.513.026.5.469a24.958,24.958,0,0,1-2.487,10.379,27.561,27.561,0,0,1-2.019,3.437c-.209.308-.347.31-.644.093q-6.453-4.725-12.925-9.425Z" transform="translate(-414.337 -2770.005)" fill="#de4537" stroke="#fff" stroke-miterlimit="10" stroke-width="3"/>
      <path id="Path_435" data-name="Path 435" d="M439.73,2797.572c1.391,1.011,2.663,1.934,3.933,2.859q5.2,3.784,10.395,7.568c1.8,1.313,3.6,2.63,5.42,3.927.325.232.276.385.066.659a24.565,24.565,0,0,1-10.021,7.841c-.571.242-1.165.432-1.734.677-.311.134-.423.1-.538-.253-1.36-4.255-2.744-8.5-4.121-12.754q-1.615-4.984-3.228-9.969C439.859,2797.993,439.819,2797.858,439.73,2797.572Z" transform="translate(-413.407 -2771.335)" fill="#de4537" stroke="#fff" stroke-miterlimit="10" stroke-width="3"/>
      <path id="Path_436" data-name="Path 436" d="M416.607,2798.9q2.186,6.776,4.373,13.553,1.551,4.8,3.112,9.6c.089.271.043.36-.222.44a24.41,24.41,0,0,1-11.811.7,20.66,20.66,0,0,1-3.19-.819c-.064-.189.048-.347.1-.51q3.661-11.257,7.337-22.508C416.359,2799.2,416.277,2798.9,416.607,2798.9Z" transform="translate(-390.772 -2772.308)" fill="#de4537" stroke="#fff" stroke-miterlimit="10" stroke-width="3"/>
      <path id="Path_437" data-name="Path 437" d="M380.555,2797.729l-1.033,3.172q-3.251,9.98-6.493,19.964c-.129.4-.259.463-.652.324a24.725,24.725,0,0,1-11.673-8.531c-.17-.223-.256-.37.044-.587q9.776-7.081,19.54-14.18C380.337,2797.854,380.393,2797.826,380.555,2797.729Z" transform="translate(-355.371 -2771.45)" fill="#de4537" stroke="#fff" stroke-miterlimit="10" stroke-width="3"/>
    </g>
    <ellipse id="Ellipse_57" data-name="Ellipse 57" cx="7.47" cy="7.47" rx="7.47" ry="7.47" transform="translate(18.309 18.277)" fill="#fff"/>
    <ellipse id="Ellipse_58" data-name="Ellipse 58" cx="18.258" cy="18.258" rx="18.258" ry="18.258" transform="translate(7.52 7.489)" fill="none" stroke="#fff" stroke-miterlimit="10" stroke-width="6"/>
    <g id="Group_182" data-name="Group 182" transform="translate(0 0)">
      <ellipse id="Ellipse_59" data-name="Ellipse 59" cx="21.201" cy="21.201" rx="21.201" ry="21.201" transform="translate(0 41.269) rotate(-76.718)" fill="#fff"/>
    </g>
    <path id="Path_438" data-name="Path 438" d="M419.83,2778.313a29.274,29.274,0,0,0-1.6-2.737c-.355-.542-.752-1.117-1.188-1.709-.108-.149-.22-.3-.333-.448s-.229-.3-.347-.453c-.234-.306-.48-.611-.732-.919-.506-.616-1.042-1.238-1.6-1.855-.1-.108-.2-.216-.3-.324.667-.723,1.3-1.454,1.9-2.179.252-.308.5-.614.732-.919l.176-.227.171-.227c.114-.15.226-.3.334-.448.436-.593.833-1.167,1.188-1.709a29.516,29.516,0,0,0,1.6-2.735c.177-.347.307-.627.393-.822s.128-.3.128-.3-.108.042-.3.128-.476.216-.822.393a29.51,29.51,0,0,0-2.735,1.6c-.542.354-1.116.752-1.709,1.188-.149.108-.3.22-.448.333l-.227.171-.226.176q-.457.353-.92.732c-.725.593-1.457,1.231-2.181,1.9-.723-.668-1.456-1.306-2.181-1.9q-.463-.379-.919-.732l-.226-.176-.227-.171c-.15-.114-.3-.226-.448-.333-.592-.436-1.167-.833-1.709-1.187a29.475,29.475,0,0,0-2.735-1.6c-.347-.177-.627-.307-.822-.393s-.3-.128-.3-.128.041.108.128.3.216.475.393.822a29.573,29.573,0,0,0,1.6,2.735c.355.542.753,1.116,1.188,1.709.108.149.22.3.334.448l.171.227.176.227c.235.3.48.611.733.919.593.725,1.23,1.457,1.9,2.179-.1.108-.2.216-.3.324-.561.616-1.1,1.239-1.6,1.855-.252.308-.5.614-.732.919-.118.152-.235.3-.347.453s-.226.3-.334.448c-.436.593-.833,1.167-1.187,1.709a29.2,29.2,0,0,0-1.6,2.737c-.177.347-.307.628-.392.823s-.128.3-.128.3.108-.041.3-.127.476-.216.823-.392a29.32,29.32,0,0,0,2.737-1.6c.543-.355,1.117-.752,1.71-1.187.149-.108.3-.22.448-.333s.3-.229.453-.347c.305-.235.611-.481.919-.733.616-.505,1.239-1.042,1.855-1.6.108-.1.215-.2.323-.3.108.1.215.2.323.3.616.561,1.239,1.1,1.855,1.6.308.252.614.5.919.733.152.118.3.234.453.347s.3.226.448.333c.593.436,1.167.833,1.709,1.188a29.35,29.35,0,0,0,2.737,1.6c.347.176.628.306.823.392s.3.127.3.127-.041-.108-.128-.3S420.006,2778.66,419.83,2778.313Z" transform="translate(-385.114 -2744.004)" fill="#de4537"/>
  </g>
</svg>
