<svg id="netscape" xmlns="http://www.w3.org/2000/svg" width="512" height="512" viewBox="0 0 512 512">
  <circle id="Ellipse_31" data-name="Ellipse 31" cx="256" cy="256" r="256" fill="#91d2f2"/>
  <path id="Path_307" data-name="Path 307" d="M233.244,312.892A356.208,356.208,0,0,0,29.96,376.2C73.012,456.98,158.06,477.864,256,477.864c87.884,0,165.408-10.176,211.5-77.656A358.133,358.133,0,0,0,233.244,312.892Z" fill="#f5f5f5"/>
  <path id="Path_308" data-name="Path 308" d="M233.244,324.264A345.31,345.31,0,0,0,35.56,386.136C80.124,461.456,162.136,512,256,512A255.631,255.631,0,0,0,460.884,409.5,345.579,345.579,0,0,0,233.244,324.264Z" fill="#2995cc"/>
  <path id="Path_309" data-name="Path 309" d="M214.752,352.864h-5.62a36.609,36.609,0,0,1-21.52-6.572q-9.4-6.57-9.4-25.328V182.788l134,150.528a342.842,342.842,0,0,1,33.08,9.536V182.788q0-15.384,2.9-21.72a18.835,18.835,0,0,1,8.08-9.136q5.178-2.8,20.3-4.572v-5.928H297.856v5.928q19.86-.318,28.288,8.98,6.144,6.888,6.148,26.448V276.24L214.76,141.436h-84.5v5.928q10.89.324,16.688,3.048t13.352,11.38l5.1,5.768v153.4q0,17.31-7.732,24.524t-27.408,7.376V358.8h84.5l0-5.932Z" fill="#f5f5f5"/>
</svg>
