<svg xmlns="http://www.w3.org/2000/svg" width="483.992" height="512" viewBox="0 0 483.992 512">
  <g id="opera" transform="translate(-14.004)">
    <path id="Path_310" data-name="Path 310" d="M498,253.792C498,415.06,398.152,512,251.188,512,113.8,512,14,414.372,14,259.7,14,113.2,115.152,0,258.024,0,400.2,0,498,103.544,498,253.792ZM253.208,79.392c-67.92,0-104.388,67.7-104.388,166,0,71.828,23.748,187.216,113.8,187.216,72.36,0,100.564-75.344,100.564-170.72C363.18,161.24,321.72,79.392,253.208,79.392Z" fill="#e16b5a"/>
    <g id="Group_96" data-name="Group 96">
      <path id="Path_311" data-name="Path 311" d="M244.908,79.784c-2.532-.236-5.084-.392-7.7-.392-67.92,0-104.388,67.7-104.388,166,0,71.828,23.748,187.216,113.8,187.216,2.656,0,5.236-.128,7.764-.328-83.272-6.82-105.568-117.3-105.568-186.888C148.82,151.18,182.328,85.124,244.908,79.784Z" fill="#bf5b4d"/>
      <path id="Path_312" data-name="Path 312" d="M258.024,0c-2.584,0-5.116.116-7.672.188C387.992,4.172,482,106.5,482,253.792c0,158.208-96.12,254.432-238.52,258.036,2.568.072,5.116.172,7.712.172C398.152,512,498,415.064,498,253.792,498,103.544,400.2,0,258.024,0Z" fill="#bf5b4d"/>
    </g>
  </g>
</svg>
