<svg xmlns="http://www.w3.org/2000/svg" width="29.602" height="29.601" viewBox="0 0 29.602 29.601">
  <g id="post-linkedin" transform="translate(0 0)">
    <path id="Path_3" data-name="Path 3" d="M26.641,0H2.96A2.969,2.969,0,0,0,0,2.96V26.641A2.969,2.969,0,0,0,2.96,29.6H26.641a2.969,2.969,0,0,0,2.96-2.96V2.96A2.969,2.969,0,0,0,26.641,0ZM8.88,25.161H4.44V11.84H8.88ZM6.66,9.324A2.664,2.664,0,1,1,9.324,6.66,2.653,2.653,0,0,1,6.66,9.324Zm18.5,15.836h-4.44V17.316a2.22,2.22,0,0,0-4.44,0v7.844h-4.44V11.84h4.44v1.776a4.781,4.781,0,0,1,3.7-2.072,5.244,5.244,0,0,1,5.18,5.18Z" fill="#fff"/>
  </g>
</svg>
