<svg id="safari" xmlns="http://www.w3.org/2000/svg" width="512" height="512" viewBox="0 0 512 512">
  <circle id="Ellipse_32" data-name="Ellipse 32" cx="256" cy="256" r="256" fill="#f5f5f5"/>
  <path id="Path_313" data-name="Path 313" d="M256,0c-1.34,0-2.664.08-4,.1C391.532,2.248,504,115.956,504,256S391.532,509.752,252,511.9c1.336.024,2.66.1,4,.1,141.384,0,256-114.616,256-256S397.384,0,256,0Z" fill="#e6e6e6"/>
  <path id="Path_314" data-name="Path 314" d="M256,489.244C127.392,489.244,22.752,384.608,22.752,256S127.392,22.756,256,22.756,489.252,127.388,489.252,256,384.608,489.244,256,489.244Z" fill="#88c5cc"/>
  <path id="Path_315" data-name="Path 315" d="M45.508,256c0-124.8,98.524-227,221.868-232.956-3.768-.18-7.56-.288-11.376-.288C127.392,22.756,22.752,127.388,22.752,256S127.392,489.244,256,489.244c3.816,0,7.6-.1,11.376-.284C144.032,483,45.508,380.8,45.508,256Z" fill="#80b9bf"/>
  <g id="Group_97" data-name="Group 97">
    <path id="Path_316" data-name="Path 316" d="M256,170.668A85.332,85.332,0,1,0,341.332,256,85.426,85.426,0,0,0,256,170.668Zm0,147.912A62.58,62.58,0,1,1,318.58,256,62.652,62.652,0,0,1,256,318.58Z" fill="#f5f5f5"/>
    <path id="Path_317" data-name="Path 317" d="M256,108.088l-17.072,68.268h34.144Z" fill="#f5f5f5"/>
    <path id="Path_318" data-name="Path 318" d="M256,403.916l-17.072-68.272h34.144Z" fill="#f5f5f5"/>
    <path id="Path_319" data-name="Path 319" d="M108.084,256l68.272,17.072v-34.14Z" fill="#f5f5f5"/>
    <path id="Path_320" data-name="Path 320" d="M403.916,256l-68.272,17.072v-34.14Z" fill="#f5f5f5"/>
  </g>
  <path id="Path_321" data-name="Path 321" d="M396.792,115.2l-160.9,120.684L256,256l20.116,20.108Z" fill="#e16b5a"/>
  <path id="Path_322" data-name="Path 322" d="M115.208,396.792l120.684-160.9L256,256l20.116,20.108Z" fill="#e6e6e6"/>
</svg>
