<svg id="Twitter" xmlns="http://www.w3.org/2000/svg" width="29.602" height="29.601" viewBox="0 0 29.602 29.601">
  <g id="post-twitter">
    <path id="Path_2" data-name="Path 2" d="M26.641,0H2.96A2.969,2.969,0,0,0,0,2.96V26.641A2.969,2.969,0,0,0,2.96,29.6H26.641a2.969,2.969,0,0,0,2.96-2.96V2.96A2.969,2.969,0,0,0,26.641,0Zm-3.4,10.8c-.148,6.808-4.44,11.544-10.953,11.84A10.773,10.773,0,0,1,5.92,20.869a7.857,7.857,0,0,0,5.772-1.628,4,4,0,0,1-3.7-2.812,5.97,5.97,0,0,0,1.628,0,4.032,4.032,0,0,1-3.108-4,2.984,2.984,0,0,0,1.628.444c-1.332-.74-2.22-3.552-1.184-5.328a11.728,11.728,0,0,0,8.14,4.144c-1.036-4.144,4.588-6.364,6.808-3.552a9.971,9.971,0,0,0,2.516-.888,4.185,4.185,0,0,1-1.628,2.22,8.484,8.484,0,0,0,2.072-.592C24.717,9.62,23.977,10.212,23.237,10.8Z" fill="#fff"/>
  </g>
</svg>
