<svg id="windows" xmlns="http://www.w3.org/2000/svg" width="512" height="512" viewBox="0 0 512 512">
  <circle id="Ellipse_33" data-name="Ellipse 33" cx="256" cy="256" r="256" fill="#2995cc"/>
  <g id="Group_98" data-name="Group 98">
    <path id="Path_323" data-name="Path 323" d="M232,246.516V129.532c-40,6.324-72.536,12.624-112,18.944v99.456C159.464,247.472,192,246.98,232,246.516Z" fill="#f5f5f5"/>
    <path id="Path_324" data-name="Path 324" d="M248,246.284c40-.48,88.536-.936,128-1.42V107.52c-39.464,6.324-88,12.62-128,18.948Z" fill="#f5f5f5"/>
    <path id="Path_325" data-name="Path 325" d="M249.6,265.72q-.024,59.9,0,119.816c39.46,6.324,86.928,12.624,126.4,18.944V267.136C336.536,266.668,289.072,266.192,249.6,265.72Z" fill="#f5f5f5"/>
    <path id="Path_326" data-name="Path 326" d="M232,265.484c-40-.476-72.536-.944-112-1.42V363.52c39.464,6.328,72,12.62,112,18.944Z" fill="#f5f5f5"/>
  </g>
</svg>
