<svg xmlns="http://www.w3.org/2000/svg" width="243.282" height="73.995" viewBox="0 0 243.282 73.995">
  <g id="Group_606" data-name="Group 606" transform="translate(0 -2)">
    <g id="Group_603" data-name="Group 603" transform="translate(46.536 52.596)">
      <path id="Path_816" data-name="Path 816" d="M83.3,93.406h7.938c4.407,0,6.171,2.951,6.171,6.481,0,4.36-2.3,6.737-6.043,6.737h-6.1v9.24H83.3Zm1.964,10.986h5.743c2.561,0,4.384-.942,4.384-4.464,0-2.752-1.456-4.295-4.384-4.295H85.265Z" transform="translate(-83.301 -92.938)" fill="#fff"/>
      <path id="Path_817" data-name="Path 817" d="M120.047,105.9v9.966H118.1V93.406h7.984c3.441,0,5.854,1.982,5.854,6,0,2.663-.975,4.646-3.224,5.366,1.268.427,2.763,1.617,2.763,5.516v.95a29.182,29.182,0,0,0,.2,4.623h-2a23.755,23.755,0,0,1-.2-4.535v-.751c0-3.607-1.1-4.68-4.29-4.68Zm0-2.181h5.5c2.908,0,4.367-1.307,4.367-4.2,0-2.641-1.463-3.931-4.261-3.931h-5.607Z" transform="translate(-98.657 -92.938)" fill="#fff"/>
      <path id="Path_818" data-name="Path 818" d="M166.4,105.132H155.759v8.528h11.72l-.288,2.2H153.8V93.406h13.159v2.2h-11.2v7.316H166.4Z" transform="translate(-114.415 -92.938)" fill="#fff"/>
      <path id="Path_819" data-name="Path 819" d="M187.138,109.021c.669,2.825,2.245,4.833,5.824,4.833,3.625,0,5.085-1.894,5.085-4.166,0-2.393-1-3.892-5.722-4.913-5.006-1.091-6.3-3.094-6.3-6.164,0-3.8,2.782-6.043,6.48-6.043,5.574,0,6.825,3.783,7.021,5.955h-2c-.384-1.645-1.168-3.821-5.063-3.821-2.641,0-4.424,1.18-4.424,3.66,0,1.987.709,3.291,4.855,4.175,6.188,1.334,7.194,3.834,7.194,6.9,0,3.486-2.165,6.528-7.235,6.528-4.7,0-7.159-2.782-7.733-6.94Z" transform="translate(-128.237 -92.568)" fill="#fff"/>
      <path id="Path_820" data-name="Path 820" d="M221.54,109.021c.669,2.825,2.246,4.833,5.824,4.833,3.625,0,5.085-1.894,5.085-4.166,0-2.393-1-3.892-5.722-4.913-5.006-1.091-6.3-3.094-6.3-6.164,0-3.8,2.782-6.043,6.481-6.043,5.573,0,6.824,3.783,7.021,5.955h-2c-.384-1.645-1.168-3.821-5.063-3.821-2.641,0-4.424,1.18-4.424,3.66,0,1.987.708,3.291,4.855,4.175,6.188,1.334,7.194,3.834,7.194,6.9,0,3.486-2.165,6.528-7.235,6.528-4.7,0-7.159-2.782-7.734-6.94Z" transform="translate(-143.42 -92.568)" fill="#fff"/>
      <path id="Path_821" data-name="Path 821" d="M271.232,108.895c-.944,3.859-3.175,7.149-8.233,7.149-5.859,0-8.952-5.274-8.952-11.609s3.426-11.693,9.1-11.693c5.074,0,7.5,3.555,8.134,7.241h-2.928c-.656-2.09-1.94-4.228-5.241-4.228-3.8,0-6.037,3.646-6.037,8.545,0,4.842,2.184,8.746,6.062,8.746,3.073,0,4.326-1.671,5.2-4.151Z" transform="translate(-158.659 -92.645)" fill="#fff"/>
      <path id="Path_822" data-name="Path 822" d="M293.783,93.589h2.866v8.886H306.5V93.589h2.866v22.356H306.5v-10.4h-9.847v10.4h-2.866Z" transform="translate(-176.197 -93.019)" fill="#fff"/>
      <path id="Path_823" data-name="Path 823" d="M346.444,105.769H336.224v7.109h11.3l-.367,3.068H333.358V93.589h13.626v3.066h-10.76V102.7h10.221Z" transform="translate(-193.663 -93.019)" fill="#fff"/>
      <path id="Path_824" data-name="Path 824" d="M382.989,108.895c-.945,3.859-3.175,7.149-8.233,7.149-5.859,0-8.952-5.274-8.952-11.609s3.426-11.693,9.1-11.693c5.074,0,7.5,3.555,8.134,7.241h-2.928c-.655-2.09-1.94-4.228-5.241-4.228-3.8,0-6.037,3.646-6.037,8.545,0,4.842,2.184,8.746,6.061,8.746,3.073,0,4.326-1.671,5.2-4.151Z" transform="translate(-207.983 -92.645)" fill="#fff"/>
      <path id="Path_825" data-name="Path 825" d="M405.539,93.589H408.4v10.718c2.618-2.93,6.423-7.024,9.712-10.718h3.644l-8.652,9.588,9.158,12.768h-3.674l-7.6-10.756-2.584,2.683v8.073h-2.865Z" transform="translate(-225.52 -93.019)" fill="#fff"/>
    </g>
    <g id="Group_605" data-name="Group 605" transform="translate(0 2)">
      <path id="Path_826" data-name="Path 826" d="M81.622,39.69l15.046-8.572a30.155,30.155,0,0,0-9.022-8.775l-8.64,14.766A12.907,12.907,0,0,1,81.622,39.69Z" transform="translate(-34.87 -10.978)" fill="#fff" opacity="0.3"/>
      <path id="Path_827" data-name="Path 827" d="M86.416,51.272a12.536,12.536,0,0,1,.953,3.526h17.468a29.268,29.268,0,0,0-3.355-12.109Z" transform="translate(-38.14 -19.958)" fill="#fff" opacity="0.2"/>
      <path id="Path_828" data-name="Path 828" d="M34.819,80.714,19.855,89.24a30.084,30.084,0,0,0,4.117,5.06,30.427,30.427,0,0,0,4.775,3.842l8.687-14.847A12.921,12.921,0,0,1,34.819,80.714Z" transform="translate(-8.763 -36.74)" fill="#fff" opacity="0.9"/>
      <path id="Path_829" data-name="Path 829" d="M37.546,37.22,28.989,22.593a30.139,30.139,0,0,0-8.88,8.762L34.931,39.8A12.921,12.921,0,0,1,37.546,37.22Z" transform="translate(-8.875 -11.089)" fill="#fff" opacity="0.6"/>
      <path id="Path_830" data-name="Path 830" d="M49.171,88.025l-8.7,14.867A30.261,30.261,0,0,0,52.744,106.2V88.966A12.976,12.976,0,0,1,49.171,88.025Z" transform="translate(-17.863 -39.967)" fill="#fff"/>
      <path id="Path_831" data-name="Path 831" d="M71.464,31.948,80.094,17.2a30.3,30.3,0,0,0-12.2-3.141V31.007A12.976,12.976,0,0,1,71.464,31.948Z" transform="translate(-29.964 -7.32)" fill="#fff" opacity="0.4"/>
      <path id="Path_832" data-name="Path 832" d="M28.635,69.744H11.456A29.268,29.268,0,0,0,14.64,81.786L29.588,73.27A12.536,12.536,0,0,1,28.635,69.744Z" transform="translate(-5.056 -31.899)" fill="#fff" opacity="0.8"/>
      <path id="Path_833" data-name="Path 833" d="M52.851,31.019V14.083a30.277,30.277,0,0,0-12.134,3.243L49.279,31.96A12.976,12.976,0,0,1,52.851,31.019Z" transform="translate(-17.97 -7.333)" fill="#fff" opacity="0.5"/>
      <path id="Path_834" data-name="Path 834" d="M29.6,51.378,14.772,42.929A29.27,29.27,0,0,0,11.485,54.9H28.648A12.536,12.536,0,0,1,29.6,51.378Z" transform="translate(-5.069 -20.064)" fill="#fff" opacity="0.7"/>
      <g id="Group_604" data-name="Group 604">
        <path id="Path_835" data-name="Path 835" d="M107.429,25.313l3.2-1.845A36.849,36.849,0,0,0,99.282,12.125l-1.754,3.037a33.261,33.261,0,0,1,9.9,10.151Z" transform="translate(-43.044 -6.469)" fill="#fff" opacity="0.3"/>
        <path id="Path_836" data-name="Path 836" d="M125.272,52.6a36.448,36.448,0,0,0-4.145-15.5L117.9,38.97A32.844,32.844,0,0,1,121.387,52.6Z" transform="translate(-52.036 -17.495)" fill="#fff" opacity="0.2"/>
        <path id="Path_837" data-name="Path 837" d="M13.162,99.528l-3.037,1.753a36.837,36.837,0,0,0,11.343,11.343l1.845-3.195a33.261,33.261,0,0,1-10.151-9.9Z" transform="translate(-4.469 -45.044)" fill="#fff" opacity="0.9"/>
        <path id="Path_838" data-name="Path 838" d="M23.063,14.888l-1.595-2.763A36.837,36.837,0,0,0,10.125,23.468l2.763,1.595A33.125,33.125,0,0,1,23.063,14.888Z" transform="translate(-4.469 -6.469)" fill="#fff" opacity="0.6"/>
        <path id="Path_839" data-name="Path 839" d="M35.108,123.128a36.456,36.456,0,0,0,15.5,4.145v-3.885A32.844,32.844,0,0,1,36.97,119.9Z" transform="translate(-15.495 -54.036)" fill="#fff"/>
        <path id="Path_840" data-name="Path 840" d="M83.745,6.145A36.457,36.457,0,0,0,68.25,2V5.317A32.807,32.807,0,0,1,82.015,9.143Z" transform="translate(-30.122 -2)" fill="#fff" opacity="0.4"/>
        <path id="Path_841" data-name="Path 841" d="M0,70.25a36.454,36.454,0,0,0,4.145,15.5l3-1.731A32.807,32.807,0,0,1,3.317,70.25Z" transform="translate(0 -32.122)" fill="#fff" opacity="0.8"/>
        <path id="Path_842" data-name="Path 842" d="M50.6,2a36.449,36.449,0,0,0-15.5,4.145l1.6,2.768A32.839,32.839,0,0,1,50.6,5.294Z" transform="translate(-15.495 -2)" fill="#fff" opacity="0.5"/>
        <path id="Path_843" data-name="Path 843" d="M4.145,37.108A36.449,36.449,0,0,0,0,52.6H3.294a32.839,32.839,0,0,1,3.618-13.9Z" transform="translate(0 -17.495)" fill="#fff" opacity="0.7"/>
      </g>
    </g>
  </g>
</svg>
